<mxfile host="app.diagrams.net" modified="2023-01-24T14:52:59.066Z" agent="5.0 (Windows NT 10.0; Win64; x64) AppleWebKit/537.36 (KHTML, like Gecko) Chrome/107.0.0.0 Safari/537.36" version="20.8.3" etag="l-L0MykTTX4A6Uy4PtmF" type="github">
  <diagram id="2UiVx4s0XuKnJDsQhXmO" name="Page-1">
    <mxGraphModel dx="2647" dy="1567" grid="1" gridSize="10" guides="1" tooltips="1" connect="1" arrows="1" fold="1" page="1" pageScale="1" pageWidth="1920" pageHeight="1200" background="#FFFFFF" math="0" shadow="0">
      <root>
        <mxCell id="0" />
        <mxCell id="1" parent="0" />
        <mxCell id="yzdZpW3bVmQ6ww04d_my-1" value="" style="shape=image;verticalLabelPosition=bottom;labelBackgroundColor=default;verticalAlign=top;aspect=fixed;imageAspect=0;image=https://cdn-icons-png.flaticon.com/512/3270/3270865.png;fontSize=15;" vertex="1" parent="1">
          <mxGeometry x="230" y="400" width="130" height="130" as="geometry" />
        </mxCell>
        <mxCell id="yzdZpW3bVmQ6ww04d_my-3" value="&lt;font style=&quot;font-size: 23px;&quot;&gt;Start&lt;/font&gt;" style="triangle;whiteSpace=wrap;html=1;" vertex="1" parent="1">
          <mxGeometry x="10" y="485" width="90" height="70" as="geometry" />
        </mxCell>
        <mxCell id="yzdZpW3bVmQ6ww04d_my-4" value="&lt;ol style=&quot;direction: ltr; unicode-bidi: embed; margin-top: 0in; margin-bottom: 0in; font-family: Calibri;&quot; type=&quot;1&quot;&gt;&lt;p style=&quot;margin: 0in; font-size: 16.5pt;&quot;&gt;&lt;span style=&quot;font-weight: bold; background-image: initial; background-position: initial; background-size: initial; background-repeat: initial; background-attachment: initial; background-origin: initial; background-clip: initial;&quot;&gt;Data source identification &amp;amp;&lt;/span&gt;&lt;/p&gt;&lt;p style=&quot;margin: 0in; font-size: 16.5pt;&quot;&gt;&lt;span style=&quot;font-weight: bold; background-image: initial; background-position: initial; background-size: initial; background-repeat: initial; background-attachment: initial; background-origin: initial; background-clip: initial;&quot;&gt;Data collection&lt;br&gt;&lt;/span&gt;&lt;/p&gt;&lt;/ol&gt;" style="text;html=1;align=center;verticalAlign=middle;resizable=0;points=[];autosize=1;strokeColor=none;fillColor=none;fontSize=15;" vertex="1" parent="1">
          <mxGeometry x="100" y="540" width="320" height="70" as="geometry" />
        </mxCell>
        <mxCell id="yzdZpW3bVmQ6ww04d_my-6" value="" style="rounded=1;whiteSpace=wrap;html=1;fontSize=22;fillColor=none;dashed=1;" vertex="1" parent="1">
          <mxGeometry x="130" y="370" width="290" height="300" as="geometry" />
        </mxCell>
        <mxCell id="yzdZpW3bVmQ6ww04d_my-8" value="" style="endArrow=classic;html=1;rounded=0;fontSize=22;" edge="1" parent="1" source="yzdZpW3bVmQ6ww04d_my-6">
          <mxGeometry width="50" height="50" relative="1" as="geometry">
            <mxPoint x="285" y="349.28932188134524" as="sourcePoint" />
            <mxPoint x="285" y="299.28932188134524" as="targetPoint" />
          </mxGeometry>
        </mxCell>
        <mxCell id="yzdZpW3bVmQ6ww04d_my-9" value="This Step will take a good amount of time, where&amp;nbsp;&lt;br&gt;team will collect all the data from different sources, and&amp;nbsp;&lt;br&gt;Understand the data" style="text;html=1;align=center;verticalAlign=middle;resizable=0;points=[];autosize=1;strokeColor=default;fillColor=default;fontSize=22;" vertex="1" parent="1">
          <mxGeometry x="40" y="205" width="560" height="90" as="geometry" />
        </mxCell>
        <mxCell id="yzdZpW3bVmQ6ww04d_my-10" value="" style="shape=image;verticalLabelPosition=bottom;labelBackgroundColor=default;verticalAlign=top;aspect=fixed;imageAspect=0;image=https://cdn-icons-png.flaticon.com/512/3285/3285819.png;" vertex="1" parent="1">
          <mxGeometry x="500" y="415" width="210" height="210" as="geometry" />
        </mxCell>
        <mxCell id="yzdZpW3bVmQ6ww04d_my-11" value="" style="rounded=1;whiteSpace=wrap;html=1;fontSize=22;fillColor=none;dashed=1;" vertex="1" parent="1">
          <mxGeometry x="480" y="370" width="240" height="300" as="geometry" />
        </mxCell>
        <mxCell id="yzdZpW3bVmQ6ww04d_my-12" value="" style="endArrow=classic;html=1;rounded=0;fontSize=22;" edge="1" parent="1" source="yzdZpW3bVmQ6ww04d_my-11">
          <mxGeometry width="50" height="50" relative="1" as="geometry">
            <mxPoint x="600" y="720" as="sourcePoint" />
            <mxPoint x="600" y="740.7106781186548" as="targetPoint" />
          </mxGeometry>
        </mxCell>
        <mxCell id="yzdZpW3bVmQ6ww04d_my-13" value="Create a detailed Data&amp;nbsp;&lt;h1 style=&quot;box-sizing: border-box; outline: none; font-size: 22px; margin: 0px 0px 10px; padding: 0px; color: rgb(55, 73, 87); line-height: 1.2; align-self: baseline; text-align: start; background-color: rgb(255, 255, 255);&quot;&gt;&lt;span style=&quot;font-weight: normal;&quot;&gt;Dictionary for better data understanding&amp;nbsp;&lt;/span&gt;&lt;/h1&gt;" style="text;html=1;align=center;verticalAlign=middle;resizable=0;points=[];autosize=1;strokeColor=default;fillColor=default;fontSize=22;" vertex="1" parent="1">
          <mxGeometry x="390" y="740" width="420" height="80" as="geometry" />
        </mxCell>
        <mxCell id="yzdZpW3bVmQ6ww04d_my-14" value="" style="shape=image;verticalLabelPosition=bottom;labelBackgroundColor=default;verticalAlign=top;aspect=fixed;imageAspect=0;image=https://cdn-icons-png.flaticon.com/512/1991/1991110.png;" vertex="1" parent="1">
          <mxGeometry x="830" y="435" width="190" height="190" as="geometry" />
        </mxCell>
        <mxCell id="yzdZpW3bVmQ6ww04d_my-16" value="" style="rounded=1;whiteSpace=wrap;html=1;fontSize=22;fillColor=none;dashed=1;" vertex="1" parent="1">
          <mxGeometry x="795" y="370" width="245" height="300" as="geometry" />
        </mxCell>
        <mxCell id="yzdZpW3bVmQ6ww04d_my-17" value="" style="endArrow=classic;html=1;rounded=0;fontFamily=Helvetica;fontSize=22;" edge="1" parent="1" source="yzdZpW3bVmQ6ww04d_my-16">
          <mxGeometry width="50" height="50" relative="1" as="geometry">
            <mxPoint x="925" y="349.28932188134524" as="sourcePoint" />
            <mxPoint x="925" y="299.28932188134524" as="targetPoint" />
          </mxGeometry>
        </mxCell>
        <mxCell id="yzdZpW3bVmQ6ww04d_my-18" value="Exploratory data analysis" style="text;html=1;align=center;verticalAlign=middle;resizable=0;points=[];autosize=1;strokeColor=default;fillColor=default;fontSize=22;" vertex="1" parent="1">
          <mxGeometry x="785" y="235" width="270" height="40" as="geometry" />
        </mxCell>
        <mxCell id="yzdZpW3bVmQ6ww04d_my-19" value="" style="shape=image;verticalLabelPosition=bottom;labelBackgroundColor=default;verticalAlign=top;aspect=fixed;imageAspect=0;image=https://cdn-icons-png.flaticon.com/512/9390/9390674.png;" vertex="1" parent="1">
          <mxGeometry x="1130" y="435" width="205" height="205" as="geometry" />
        </mxCell>
        <mxCell id="yzdZpW3bVmQ6ww04d_my-20" value="" style="rounded=1;whiteSpace=wrap;html=1;fontSize=22;fillColor=none;dashed=1;" vertex="1" parent="1">
          <mxGeometry x="1120" y="370" width="240" height="300" as="geometry" />
        </mxCell>
        <mxCell id="yzdZpW3bVmQ6ww04d_my-21" value="" style="endArrow=classic;html=1;rounded=0;fontFamily=Helvetica;fontSize=22;" edge="1" parent="1" source="yzdZpW3bVmQ6ww04d_my-20">
          <mxGeometry width="50" height="50" relative="1" as="geometry">
            <mxPoint x="1240" y="720" as="sourcePoint" />
            <mxPoint x="1240" y="740.7106781186548" as="targetPoint" />
          </mxGeometry>
        </mxCell>
        <mxCell id="yzdZpW3bVmQ6ww04d_my-22" value="Analytical dataset creation" style="text;html=1;align=center;verticalAlign=middle;resizable=0;points=[];autosize=1;strokeColor=default;fillColor=default;fontSize=22;" vertex="1" parent="1">
          <mxGeometry x="1100" y="740" width="280" height="40" as="geometry" />
        </mxCell>
        <mxCell id="yzdZpW3bVmQ6ww04d_my-23" value="" style="shape=image;verticalLabelPosition=bottom;labelBackgroundColor=default;verticalAlign=top;aspect=fixed;imageAspect=0;image=https://cdn-icons-png.flaticon.com/512/1376/1376834.png;" vertex="1" parent="1">
          <mxGeometry x="1570" y="455" width="195" height="195" as="geometry" />
        </mxCell>
        <mxCell id="yzdZpW3bVmQ6ww04d_my-24" value="" style="rounded=1;whiteSpace=wrap;html=1;fontSize=22;fillColor=none;dashed=1;arcSize=6;" vertex="1" parent="1">
          <mxGeometry x="1440" y="260" width="520" height="710" as="geometry" />
        </mxCell>
        <mxCell id="yzdZpW3bVmQ6ww04d_my-25" value="&lt;b&gt;Regression Modeling&lt;/b&gt;" style="text;html=1;align=center;verticalAlign=middle;resizable=0;points=[];autosize=1;strokeColor=none;fillColor=none;fontSize=22;fontFamily=Helvetica;" vertex="1" parent="1">
          <mxGeometry x="1542.5" y="650" width="250" height="40" as="geometry" />
        </mxCell>
        <mxCell id="yzdZpW3bVmQ6ww04d_my-26" value="&lt;div style=&quot;text-align: left;&quot;&gt;&lt;span style=&quot;background-color: initial;&quot;&gt;ML/DL Regression model to predict:&lt;/span&gt;&lt;/div&gt;&lt;div style=&quot;text-align: left;&quot;&gt;&lt;span style=&quot;background-color: initial;&quot;&gt;1. Raw Material&lt;/span&gt;&lt;/div&gt;&lt;div style=&quot;text-align: left;&quot;&gt;&lt;span style=&quot;background-color: initial;&quot;&gt;2. Packing Material&lt;/span&gt;&lt;/div&gt;&lt;div style=&quot;text-align: left;&quot;&gt;&lt;span style=&quot;background-color: initial;&quot;&gt;3. L&amp;amp; OH cost&lt;/span&gt;&lt;/div&gt;" style="text;html=1;align=center;verticalAlign=middle;resizable=0;points=[];autosize=1;strokeColor=default;fillColor=default;fontSize=22;fontFamily=Helvetica;" vertex="1" parent="1">
          <mxGeometry x="1500" y="700" width="370" height="120" as="geometry" />
        </mxCell>
        <mxCell id="yzdZpW3bVmQ6ww04d_my-27" value="Analytical Dataset Creation" style="text;html=1;align=center;verticalAlign=middle;resizable=0;points=[];autosize=1;strokeColor=default;fillColor=default;fontSize=22;fontFamily=Helvetica;" vertex="1" parent="1">
          <mxGeometry x="1520" y="300" width="290" height="40" as="geometry" />
        </mxCell>
        <mxCell id="yzdZpW3bVmQ6ww04d_my-28" value="Data Pre-Processing" style="text;html=1;align=center;verticalAlign=middle;resizable=0;points=[];autosize=1;strokeColor=default;fillColor=default;fontSize=22;fontFamily=Helvetica;" vertex="1" parent="1">
          <mxGeometry x="1550" y="395" width="230" height="40" as="geometry" />
        </mxCell>
        <mxCell id="yzdZpW3bVmQ6ww04d_my-29" value="" style="rounded=1;whiteSpace=wrap;html=1;fontSize=22;fillColor=none;dashed=1;" vertex="1" parent="1">
          <mxGeometry x="1990" y="215" width="470" height="765" as="geometry" />
        </mxCell>
        <mxCell id="yzdZpW3bVmQ6ww04d_my-30" value="" style="endArrow=classic;html=1;rounded=0;fontFamily=Helvetica;fontSize=22;" edge="1" parent="1" source="yzdZpW3bVmQ6ww04d_my-24">
          <mxGeometry width="50" height="50" relative="1" as="geometry">
            <mxPoint x="1690" y="239.28932188134524" as="sourcePoint" />
            <mxPoint x="1700" y="189" as="targetPoint" />
            <Array as="points">
              <mxPoint x="1700" y="250" />
            </Array>
          </mxGeometry>
        </mxCell>
        <mxCell id="yzdZpW3bVmQ6ww04d_my-31" value="Creating a Regression model to&lt;br&gt;Predict the 3 Target variables" style="text;html=1;align=center;verticalAlign=middle;resizable=0;points=[];autosize=1;strokeColor=none;fillColor=none;fontSize=22;" vertex="1" parent="1">
          <mxGeometry x="1550" y="120" width="330" height="70" as="geometry" />
        </mxCell>
        <mxCell id="yzdZpW3bVmQ6ww04d_my-32" value="" style="shape=image;verticalLabelPosition=bottom;labelBackgroundColor=default;verticalAlign=top;aspect=fixed;imageAspect=0;image=https://cdn-icons-png.flaticon.com/512/9488/9488888.png;" vertex="1" parent="1">
          <mxGeometry x="2105" y="435" width="200" height="200" as="geometry" />
        </mxCell>
        <mxCell id="yzdZpW3bVmQ6ww04d_my-33" value="Get better output" style="text;html=1;align=center;verticalAlign=middle;resizable=0;points=[];autosize=1;strokeColor=default;fillColor=default;fontSize=22;fontFamily=Helvetica;" vertex="1" parent="1">
          <mxGeometry x="1572.5" y="900" width="190" height="40" as="geometry" />
        </mxCell>
        <mxCell id="yzdZpW3bVmQ6ww04d_my-35" value="" style="endArrow=classic;html=1;rounded=0;fontFamily=Helvetica;fontSize=22;" edge="1" parent="1">
          <mxGeometry width="50" height="50" relative="1" as="geometry">
            <mxPoint x="1810" y="320" as="sourcePoint" />
            <mxPoint x="1790" y="415" as="targetPoint" />
            <Array as="points">
              <mxPoint x="1860" y="320" />
              <mxPoint x="1860" y="415" />
            </Array>
          </mxGeometry>
        </mxCell>
        <mxCell id="yzdZpW3bVmQ6ww04d_my-36" value="" style="endArrow=classic;html=1;rounded=0;fontFamily=Helvetica;fontSize=22;" edge="1" parent="1">
          <mxGeometry width="50" height="50" relative="1" as="geometry">
            <mxPoint x="1790" y="430" as="sourcePoint" />
            <mxPoint x="1870" y="740" as="targetPoint" />
            <Array as="points">
              <mxPoint x="1940" y="430" />
              <mxPoint x="1940" y="590" />
              <mxPoint x="1940" y="740" />
            </Array>
          </mxGeometry>
        </mxCell>
        <mxCell id="yzdZpW3bVmQ6ww04d_my-37" value="" style="endArrow=classic;html=1;rounded=0;fontFamily=Helvetica;fontSize=22;" edge="1" parent="1">
          <mxGeometry width="50" height="50" relative="1" as="geometry">
            <mxPoint x="1880" y="800" as="sourcePoint" />
            <mxPoint x="1770" y="930" as="targetPoint" />
            <Array as="points">
              <mxPoint x="1930" y="800" />
              <mxPoint x="1930" y="930" />
            </Array>
          </mxGeometry>
        </mxCell>
        <mxCell id="yzdZpW3bVmQ6ww04d_my-38" value="" style="endArrow=classic;html=1;rounded=0;fontFamily=Helvetica;fontSize=22;" edge="1" parent="1" target="yzdZpW3bVmQ6ww04d_my-28">
          <mxGeometry width="50" height="50" relative="1" as="geometry">
            <mxPoint x="1570" y="920" as="sourcePoint" />
            <mxPoint x="1400" y="890" as="targetPoint" />
            <Array as="points">
              <mxPoint x="1460" y="920" />
              <mxPoint x="1460" y="420" />
            </Array>
          </mxGeometry>
        </mxCell>
        <mxCell id="yzdZpW3bVmQ6ww04d_my-40" value="&lt;b&gt;Optimizer&lt;/b&gt;" style="text;html=1;align=center;verticalAlign=middle;resizable=0;points=[];autosize=1;strokeColor=none;fillColor=none;fontSize=22;fontFamily=Helvetica;" vertex="1" parent="1">
          <mxGeometry x="2145" y="640" width="120" height="40" as="geometry" />
        </mxCell>
        <mxCell id="yzdZpW3bVmQ6ww04d_my-41" value="" style="endArrow=classic;html=1;rounded=0;fontFamily=Helvetica;fontSize=22;entryX=0.5;entryY=1;entryDx=0;entryDy=0;" edge="1" parent="1" source="yzdZpW3bVmQ6ww04d_my-33" target="yzdZpW3bVmQ6ww04d_my-29">
          <mxGeometry width="50" height="50" relative="1" as="geometry">
            <mxPoint x="1667.5" y="990" as="sourcePoint" />
            <mxPoint x="2400" y="1110" as="targetPoint" />
            <Array as="points">
              <mxPoint x="1668" y="1110" />
              <mxPoint x="2225" y="1110" />
            </Array>
          </mxGeometry>
        </mxCell>
        <mxCell id="yzdZpW3bVmQ6ww04d_my-43" value="Create Decision Variable&lt;br&gt;and Constraints" style="text;html=1;align=center;verticalAlign=middle;resizable=0;points=[];autosize=1;strokeColor=default;fillColor=default;fontSize=22;fontFamily=Helvetica;" vertex="1" parent="1">
          <mxGeometry x="2070" y="235" width="270" height="70" as="geometry" />
        </mxCell>
        <mxCell id="yzdZpW3bVmQ6ww04d_my-44" value="Define a Objective function" style="text;html=1;align=center;verticalAlign=middle;resizable=0;points=[];autosize=1;strokeColor=default;fillColor=default;fontSize=22;fontFamily=Helvetica;" vertex="1" parent="1">
          <mxGeometry x="2060" y="350" width="290" height="40" as="geometry" />
        </mxCell>
        <mxCell id="yzdZpW3bVmQ6ww04d_my-45" value="Build the model with Minimization&lt;br&gt;Function using PULP solver" style="text;html=1;align=center;verticalAlign=middle;resizable=0;points=[];autosize=1;strokeColor=default;fillColor=default;fontSize=22;fontFamily=Helvetica;" vertex="1" parent="1">
          <mxGeometry x="2030" y="700" width="350" height="70" as="geometry" />
        </mxCell>
        <mxCell id="yzdZpW3bVmQ6ww04d_my-46" value="Check for Feasible Result" style="text;html=1;align=center;verticalAlign=middle;resizable=0;points=[];autosize=1;strokeColor=default;fillColor=default;fontSize=22;fontFamily=Helvetica;" vertex="1" parent="1">
          <mxGeometry x="2065" y="820" width="280" height="40" as="geometry" />
        </mxCell>
        <mxCell id="yzdZpW3bVmQ6ww04d_my-47" value="Pick the Best model" style="text;html=1;align=center;verticalAlign=middle;resizable=0;points=[];autosize=1;strokeColor=default;fillColor=default;fontSize=22;fontFamily=Helvetica;" vertex="1" parent="1">
          <mxGeometry x="2100" y="920" width="220" height="40" as="geometry" />
        </mxCell>
        <mxCell id="yzdZpW3bVmQ6ww04d_my-48" value="" style="endArrow=classic;html=1;rounded=0;fontFamily=Helvetica;fontSize=22;entryX=1.007;entryY=0.485;entryDx=0;entryDy=0;entryPerimeter=0;exitX=1.004;exitY=0.83;exitDx=0;exitDy=0;exitPerimeter=0;" edge="1" parent="1" source="yzdZpW3bVmQ6ww04d_my-46" target="yzdZpW3bVmQ6ww04d_my-44">
          <mxGeometry width="50" height="50" relative="1" as="geometry">
            <mxPoint x="2540" y="860" as="sourcePoint" />
            <mxPoint x="2520" y="357.80487804878067" as="targetPoint" />
            <Array as="points">
              <mxPoint x="2430" y="853" />
              <mxPoint x="2430" y="369" />
            </Array>
          </mxGeometry>
        </mxCell>
        <mxCell id="yzdZpW3bVmQ6ww04d_my-49" value="" style="endArrow=classic;html=1;rounded=0;fontFamily=Helvetica;fontSize=22;" edge="1" parent="1">
          <mxGeometry width="50" height="50" relative="1" as="geometry">
            <mxPoint x="2200" y="305" as="sourcePoint" />
            <mxPoint x="2200" y="350" as="targetPoint" />
          </mxGeometry>
        </mxCell>
        <mxCell id="yzdZpW3bVmQ6ww04d_my-50" value="" style="endArrow=classic;html=1;rounded=0;fontFamily=Helvetica;fontSize=22;" edge="1" parent="1">
          <mxGeometry width="50" height="50" relative="1" as="geometry">
            <mxPoint x="2203.57" y="392.5" as="sourcePoint" />
            <mxPoint x="2203.57" y="437.5" as="targetPoint" />
          </mxGeometry>
        </mxCell>
        <mxCell id="yzdZpW3bVmQ6ww04d_my-51" value="" style="endArrow=classic;html=1;rounded=0;fontFamily=Helvetica;fontSize=22;" edge="1" parent="1">
          <mxGeometry width="50" height="50" relative="1" as="geometry">
            <mxPoint x="2203.57" y="770" as="sourcePoint" />
            <mxPoint x="2203.57" y="815" as="targetPoint" />
          </mxGeometry>
        </mxCell>
        <mxCell id="yzdZpW3bVmQ6ww04d_my-52" value="" style="endArrow=classic;html=1;rounded=0;fontFamily=Helvetica;fontSize=22;" edge="1" parent="1">
          <mxGeometry width="50" height="50" relative="1" as="geometry">
            <mxPoint x="2203.57" y="870" as="sourcePoint" />
            <mxPoint x="2203.57" y="915" as="targetPoint" />
          </mxGeometry>
        </mxCell>
      </root>
    </mxGraphModel>
  </diagram>
</mxfile>
